<?xml version="1.0" encoding="UTF-8"?>
<svg width="300px" height="300px" viewBox="0 0 300 300" version="1.1" xmlns="http://www.w3.org/2000/svg" xmlns:xlink="http://www.w3.org/1999/xlink">
    <!-- Generator: Sketch 64 (93537) - https://sketch.com -->
    <title>Main</title>
    <desc>Created with Sketch.</desc>
    <g id="Page-1" stroke="none" stroke-width="1" fill="none" fill-rule="evenodd">
        <g id="Main-logo" fill="#FFFFFF" fill-rule="nonzero">
            <path d="M0,0 L300,0 L300,300 L0,300 L0,0 Z M105.124542,132.55814 L129.568106,132.55814 L106.957809,95.448787 C112.579857,93.734154 116.979655,90.876477 120.157334,86.875669 C123.335013,82.87486 124.923829,77.935161 124.923829,72.056422 C124.923829,67.075824 123.986835,62.91178 122.112819,59.564165 C120.238803,56.21655 117.733363,53.522168 114.596423,51.480939 C111.459483,49.43971 107.915202,47.99046 103.963472,47.133144 C100.011743,46.275828 95.958226,45.847176 91.802799,45.847176 L58.803987,45.847176 L58.803987,132.55814 L79.336581,132.55814 L79.336581,98.143195 L86.425215,98.143195 L105.124542,132.55814 Z M246.179402,121.167155 L231.53462,107.400711 C229.647608,110.022904 227.145304,112.153404 224.027631,113.792274 C220.909959,115.431145 217.259056,116.250568 213.074812,116.250568 C209.464875,116.250568 206.142143,115.595029 203.106515,114.283933 C200.070887,112.972836 197.466029,111.14962 195.291862,108.81423 C193.117696,106.478839 191.415309,103.672315 190.184649,100.394574 C188.953989,97.116833 188.338668,93.511371 188.338668,89.578082 C188.338668,85.726736 188.953989,82.182732 190.184649,78.945962 C191.415309,75.709193 193.138207,72.902669 195.353395,70.526306 C197.568583,68.149944 200.214463,66.285757 203.291113,64.933688 C206.367763,63.58162 209.752028,62.905596 213.444008,62.905596 C216.807812,62.905596 220.089523,63.561135 223.289239,64.872231 C226.488955,66.183328 229.073303,68.190914 231.042359,70.89505 L245.317944,56.636947 C241.625964,52.457827 236.805951,49.282563 230.857761,47.11106 C224.90957,44.939556 218.858916,43.853821 212.705615,43.853821 C206.060051,43.853821 199.865822,44.919071 194.122741,47.049602 C188.379661,49.180134 183.375052,52.232485 179.108763,56.206746 C174.842475,60.181007 171.499232,64.995117 169.078934,70.649221 C166.658636,76.303325 165.448505,82.612882 165.448505,89.578082 C165.448505,96.379395 166.638125,102.60701 169.017401,108.261114 C171.396677,113.915217 174.678388,118.770298 178.862633,122.826503 C183.046877,126.882708 187.989954,130.017001 193.692012,132.229476 C199.394071,134.441952 205.608811,135.548173 212.336419,135.548173 C219.72038,135.548173 226.24278,134.257582 231.903817,131.67636 C237.564853,129.095139 242.323334,125.592106 246.179402,121.167155 Z M105.124542,251.162791 L129.568106,251.162791 L106.957809,214.053438 C112.579857,212.338806 116.979655,209.481128 120.157334,205.48032 C123.335013,201.479512 124.923829,196.539812 124.923829,190.661073 C124.923829,185.680475 123.986835,181.516431 122.112819,178.168816 C120.238803,174.821201 117.733363,172.126819 114.596423,170.08559 C111.459483,168.044362 107.915202,166.595111 103.963472,165.737795 C100.011743,164.880479 95.958226,164.451827 91.802799,164.451827 L58.803987,164.451827 L58.803987,251.162791 L79.336581,251.162791 L79.336581,216.747846 L86.425215,216.747846 L105.124542,251.162791 Z M250.166113,207.562363 C250.166113,199.397448 248.741225,192.539022 245.891406,186.98688 C243.041587,181.434738 239.296167,177.005338 234.655033,173.698547 C230.013899,170.391757 224.721458,168.023967 218.777549,166.595107 C212.833641,165.166247 206.8084,164.451827 200.701645,164.451827 L169.435216,164.451827 L169.435216,251.162791 L201.678721,251.162791 C207.622629,251.162791 213.485026,250.325899 219.266087,248.652092 C225.047149,246.978284 230.237813,244.365551 234.838235,240.813813 C239.438657,237.262075 243.143366,232.730615 245.952473,227.219297 C248.76158,221.70798 250.166113,215.155734 250.166113,207.562363 Z" id="Main"></path>
        </g>
    </g>
</svg>