<?xml version="1.0" encoding="UTF-8"?>
<svg width="50px" height="52px" viewBox="0 0 50 52" version="1.1" xmlns="http://www.w3.org/2000/svg" xmlns:xlink="http://www.w3.org/1999/xlink">
    <!-- Generator: Sketch 64 (93537) - https://sketch.com -->
    <title>Shape</title>
    <desc>Created with Sketch.</desc>
    <g id="Welcome" stroke="none" stroke-width="1" fill="none" fill-rule="evenodd">
        <g id="Desktop-HD" transform="translate(-1720.000000, -50.000000)" fill="#FFFFFF" fill-rule="nonzero">
            <g id="Header">
                <g id="menu" transform="translate(1720.000000, 50.000000)">
                    <path d="M47.8459502,3.83955422e-06 L2.15354162,3.83955422e-06 C1.34765042,-0.00151669239 0.608832007,0.448684897 0.240439123,1.16565376 C-0.133035107,1.89227697 -0.0674865421,2.76727373 0.409645768,3.43088904 L17.1494199,27.0121007 C17.1550093,27.0202308 17.1611069,27.0278527 17.1666963,27.0359828 C17.7749257,27.8571179 18.1036846,28.8515247 18.1057172,29.8738785 L18.1057172,49.0994156 C18.1021602,49.6690272 18.3257366,50.2157731 18.7271579,50.6197351 C19.1285791,51.023697 19.6743088,51.2503221 20.2434124,51.2503221 C20.5330453,51.2503221 20.8191215,51.1923955 21.0863969,51.0816235 L30.4928654,47.4947469 C31.33585,47.237634 31.8952991,46.4424135 31.8952991,45.4845918 L31.8952991,29.8738785 C31.8968235,28.8520328 32.2260906,27.8571179 32.8338119,27.0359828 C32.8394013,27.0278527 32.8454988,27.0202308 32.8510882,27.0121007 L49.5903542,3.42987285 C50.0674866,2.7667655 50.1330351,1.89227697 49.759561,1.16565376 C49.3911679,0.448684897 48.6523497,-0.00151669239 47.8459502,3.83955422e-06 Z M29.804497,24.9800253 C29.1029048,25.9210987 28.7235112,27.0589043 28.7212234,28.2279912 L28.7212234,43.5721284 L21.2787766,46 L21.2787766,28.2279912 C21.2764888,27.0589043 20.8970952,25.9210987 20.1951216,24.9800253 L5,4 L45,4 L29.804497,24.9800253 Z" id="Shape"></path>
                </g>
            </g>
        </g>
    </g>
</svg>