<?xml version="1.0" encoding="UTF-8"?>
<svg width="50px" height="50px" viewBox="0 0 50 50" version="1.1" xmlns="http://www.w3.org/2000/svg" xmlns:xlink="http://www.w3.org/1999/xlink">
    <!-- Generator: Sketch 64 (93537) - https://sketch.com -->
    <title>Shape</title>
    <desc>Created with Sketch.</desc>
    <g id="Welcome" stroke="none" stroke-width="1" fill="none" fill-rule="evenodd">
        <g id="Desktop-HD" transform="translate(-1820.000000, -50.000000)" fill="#FFFFFF" fill-rule="nonzero">
            <g id="Header">
                <g id="menu" transform="translate(1720.000000, 50.000000)">
                    <path d="M149.389008,46.4432398 L135.170414,32.224646 C137.924583,28.8226326 139.582866,24.4997308 139.582866,19.7914818 C139.582866,8.87910167 130.703764,0 119.791384,0 C108.879004,0 100,8.87900401 100,19.7913841 C100,30.7037642 108.879102,39.5828659 119.791482,39.5828659 C124.499731,39.5828659 128.822633,37.9245833 132.224646,35.1704144 L146.44324,49.3890082 C146.849485,49.7952537 147.38278,49.9994507 147.916173,49.9994507 C148.449565,49.9994507 148.98286,49.7952537 149.389106,49.3890082 C150.203648,48.5744663 150.203648,47.2577816 149.389008,46.4432398 Z M119.791482,35.4162125 C111.174877,35.4162125 104.166653,28.4079887 104.166653,19.7913841 C104.166653,11.1747796 111.174877,4.16655579 119.791482,4.16655579 C128.408086,4.16655579 135.41631,11.1747796 135.41631,19.7913841 C135.41631,28.4079887 128.407989,35.4162125 119.791482,35.4162125 Z" id="Shape"></path>
                </g>
            </g>
        </g>
    </g>
</svg>