<svg width="150" height="67" xmlns="http://www.w3.org/2000/svg"><g fill="none" fill-rule="evenodd"><path d="M59.32 66h-7.29v-5.508h-.163c-1.404 2.052-3.334 3.645-5.791 4.779-2.457 1.134-4.981 1.701-7.574 1.701-2.97 0-5.656-.513-8.059-1.539-2.403-1.026-4.455-2.457-6.156-4.293-1.701-1.836-3.01-3.969-3.928-6.399-.919-2.43-1.378-5.076-1.378-7.938s.46-5.521 1.377-7.978c.919-2.458 2.228-4.59 3.929-6.4 1.701-1.809 3.753-3.226 6.156-4.252 2.403-1.026 5.09-1.539 8.06-1.539 2.754 0 5.345.58 7.776 1.741 2.43 1.162 4.292 2.741 5.588 4.739h.163V4.764h7.29V66zm-19.926-5.832c1.944 0 3.698-.337 5.264-1.012 1.567-.676 2.89-1.593 3.97-2.755 1.08-1.16 1.916-2.564 2.51-4.212.595-1.647.892-3.442.892-5.386s-.297-3.74-.892-5.386c-.594-1.648-1.43-3.051-2.51-4.212-1.08-1.162-2.403-2.08-3.97-2.755-1.566-.675-3.32-1.012-5.264-1.012-1.945 0-3.7.337-5.265 1.012-1.567.676-2.89 1.593-3.97 2.755-1.08 1.16-1.916 2.564-2.51 4.212-.595 1.647-.892 3.442-.892 5.386s.297 3.74.891 5.387c.595 1.647 1.431 3.05 2.512 4.212 1.08 1.16 2.402 2.078 3.969 2.754 1.566.675 3.32 1.012 5.265 1.012zm36.45-10.692c0 1.674.364 3.2 1.093 4.577a11.386 11.386 0 0 0 2.876 3.523c1.188.972 2.564 1.728 4.13 2.268 1.567.54 3.186.81 4.86.81 2.269 0 4.24-.526 5.913-1.58 1.675-1.053 3.213-2.443 4.618-4.171l5.507 4.212c-4.05 5.238-9.72 7.857-17.01 7.857-3.024 0-5.764-.513-8.221-1.539-2.457-1.026-4.536-2.443-6.237-4.253-1.701-1.809-3.01-3.941-3.928-6.398-.919-2.458-1.377-5.117-1.377-7.979s.499-5.521 1.498-7.978c.999-2.458 2.376-4.59 4.131-6.4 1.755-1.809 3.847-3.226 6.278-4.252 2.43-1.026 5.075-1.539 7.938-1.539 3.402 0 6.277.594 8.626 1.782 2.349 1.188 4.28 2.74 5.791 4.658a18.378 18.378 0 0 1 3.281 6.48 26.982 26.982 0 0 1 1.013 7.33v2.592h-30.78zm23.004-5.832c-.055-1.62-.311-3.105-.77-4.455s-1.147-2.524-2.066-3.523c-.918-1-2.065-1.782-3.442-2.35-1.377-.567-2.983-.85-4.82-.85-1.782 0-3.415.337-4.9 1.012-1.485.676-2.74 1.553-3.766 2.633a12.158 12.158 0 0 0-2.39 3.605c-.567 1.323-.85 2.632-.85 3.928h23.004zm11.906-16.038h8.424l11.502 29.403 11.016-29.403h7.776L134.406 66h-8.019l-15.633-38.394z" fill="#FFF"/><path fill="#63A6EB" d="M15.831 6.076H.711V.114H23.09v5.703L10.863 30.7h-7.56z"/></g></svg>